<?xml version="1.0" encoding="UTF-8"?>
<svg xmlns="http://www.w3.org/2000/svg" xmlns:xlink="http://www.w3.org/1999/xlink" width="40pt" height="40pt" viewBox="0 0 40 40" version="1.1">
<g id="surface1">
<path style=" stroke:none;fill-rule:nonzero;fill:rgb(100%,70.588235%,0%);fill-opacity:1;" d="M 26.515625 20.203125 L 40 28.730469 L 40 11.320312 Z M 26.515625 20.203125 "/>
<path style=" stroke:none;fill-rule:nonzero;fill:rgb(100%,70.588235%,0%);fill-opacity:1;" d="M 0 11.320312 L 0 28.730469 L 13.484375 20.203125 Z M 0 11.320312 "/>
<path style=" stroke:none;fill-rule:nonzero;fill:rgb(100%,70.588235%,0%);fill-opacity:1;" d="M 37.5 6.25 L 2.5 6.25 C 1.253906 6.25 0.261719 7.179688 0.0742188 8.378906 L 20 21.503906 L 39.925781 8.378906 C 39.738281 7.179688 38.746094 6.25 37.5 6.25 Z M 37.5 6.25 "/>
<path style=" stroke:none;fill-rule:nonzero;fill:rgb(100%,70.588235%,0%);fill-opacity:1;" d="M 24.226562 21.714844 L 20.6875 24.046875 C 20.476562 24.183594 20.238281 24.25 20 24.25 C 19.761719 24.25 19.523438 24.183594 19.3125 24.046875 L 15.773438 21.710938 L 0.078125 31.640625 C 0.273438 32.828125 1.257812 33.75 2.5 33.75 L 37.5 33.75 C 38.742188 33.75 39.726562 32.828125 39.921875 31.640625 Z M 24.226562 21.714844 "/>
</g>
</svg>
