<?xml version="1.0" encoding="UTF-8"?>
<svg xmlns="http://www.w3.org/2000/svg" xmlns:xlink="http://www.w3.org/1999/xlink" width="40pt" height="40pt" viewBox="0 0 40 40" version="1.1">
<g id="surface1">
<path style=" stroke:none;fill-rule:nonzero;fill:rgb(100%,70.588235%,0%);fill-opacity:1;" d="M 40 20 C 40 8.953125 31.046875 0 20 0 C 8.953125 0 0 8.953125 0 20 C 0 31.046875 8.953125 40 20 40 C 20.117188 40 20.234375 40 20.351562 39.992188 L 20.351562 24.429688 L 16.054688 24.429688 L 16.054688 19.421875 L 20.351562 19.421875 L 20.351562 15.734375 C 20.351562 11.460938 22.960938 9.132812 26.773438 9.132812 C 28.601562 9.132812 30.171875 9.265625 30.625 9.328125 L 30.625 13.796875 L 28 13.796875 C 25.929688 13.796875 25.523438 14.78125 25.523438 16.226562 L 25.523438 19.414062 L 30.484375 19.414062 L 29.835938 24.421875 L 25.523438 24.421875 L 25.523438 39.226562 C 33.882812 36.828125 40 29.132812 40 20 Z M 40 20 "/>
</g>
</svg>
