<?xml version="1.0" encoding="UTF-8"?>
<svg xmlns="http://www.w3.org/2000/svg" xmlns:xlink="http://www.w3.org/1999/xlink" width="40pt" height="40pt" viewBox="0 0 40 40" version="1.1">
<g id="surface1">
<path style=" stroke:none;fill-rule:nonzero;fill:rgb(100%,70.588235%,0%);fill-opacity:1;" d="M 20 0.832031 C 8.949219 0.832031 0 9.632812 0 20.488281 C 0 29.171875 5.730469 36.535156 13.675781 39.132812 C 14.675781 39.316406 15.042969 38.710938 15.042969 38.1875 C 15.042969 37.722656 15.023438 36.484375 15.015625 34.847656 C 9.453125 36.03125 8.28125 32.210938 8.28125 32.210938 C 7.371094 29.941406 6.054688 29.335938 6.054688 29.335938 C 4.242188 28.117188 6.195312 28.140625 6.195312 28.140625 C 8.203125 28.277344 9.257812 30.167969 9.257812 30.167969 C 11.042969 33.171875 13.941406 32.304688 15.082031 31.800781 C 15.261719 30.53125 15.777344 29.664062 16.351562 29.171875 C 11.910156 28.683594 7.238281 26.992188 7.238281 19.460938 C 7.238281 17.316406 8.015625 15.5625 9.296875 14.1875 C 9.074219 13.691406 8.398438 11.691406 9.472656 8.988281 C 9.472656 8.988281 11.148438 8.460938 14.972656 11 C 16.574219 10.566406 18.273438 10.347656 19.972656 10.339844 C 21.671875 10.347656 23.375 10.566406 24.972656 11 C 28.773438 8.460938 30.449219 8.988281 30.449219 8.988281 C 31.523438 11.691406 30.847656 13.691406 30.648438 14.1875 C 31.921875 15.5625 32.699219 17.316406 32.699219 19.460938 C 32.699219 27.011719 28.023438 28.671875 23.574219 29.15625 C 24.273438 29.746094 24.921875 30.953125 24.921875 32.792969 C 24.921875 35.421875 24.898438 37.535156 24.898438 38.175781 C 24.898438 38.691406 25.25 39.304688 26.273438 39.109375 C 34.273438 36.527344 40 29.160156 40 20.488281 C 40 9.632812 31.046875 0.832031 20 0.832031 Z M 20 0.832031 "/>
</g>
</svg>
