<?xml version="1.0" encoding="UTF-8"?>
<svg xmlns="http://www.w3.org/2000/svg" xmlns:xlink="http://www.w3.org/1999/xlink" width="40pt" height="40pt" viewBox="0 0 40 40" version="1.1">
<g id="surface1">
<path style=" stroke:none;fill-rule:nonzero;fill:rgb(100%,70.588235%,0%);fill-opacity:1;" d="M 39.960938 11.761719 C 39.867188 9.632812 39.523438 8.171875 39.03125 6.90625 C 38.523438 5.5625 37.742188 4.359375 36.71875 3.359375 C 35.71875 2.34375 34.507812 1.554688 33.179688 1.054688 C 31.90625 0.5625 30.453125 0.21875 28.324219 0.125 C 26.183594 0.0234375 25.503906 0 20.074219 0 C 14.644531 0 13.964844 0.0234375 11.832031 0.117188 C 9.703125 0.210938 8.242188 0.554688 6.976562 1.046875 C 5.632812 1.554688 4.429688 2.335938 3.429688 3.359375 C 2.414062 4.359375 1.625 5.570312 1.125 6.898438 C 0.632812 8.171875 0.289062 9.625 0.195312 11.753906 C 0.09375 13.894531 0.0703125 14.574219 0.0703125 20.003906 C 0.0703125 25.433594 0.09375 26.113281 0.1875 28.246094 C 0.28125 30.375 0.625 31.835938 1.117188 33.101562 C 1.625 34.445312 2.414062 35.648438 3.429688 36.648438 C 4.429688 37.664062 5.640625 38.453125 6.96875 38.953125 C 8.242188 39.445312 9.695312 39.789062 11.824219 39.882812 C 13.957031 39.976562 14.636719 40 20.066406 40 C 25.496094 40 26.175781 39.976562 28.308594 39.882812 C 30.4375 39.789062 31.898438 39.445312 33.164062 38.953125 C 35.851562 37.914062 37.976562 35.789062 39.015625 33.101562 C 39.507812 31.828125 39.851562 30.375 39.945312 28.246094 C 40.039062 26.113281 40.0625 25.433594 40.0625 20.003906 C 40.0625 14.574219 40.054688 13.894531 39.960938 11.761719 Z M 36.359375 28.089844 C 36.273438 30.046875 35.945312 31.101562 35.671875 31.804688 C 35 33.546875 33.617188 34.929688 31.875 35.601562 C 31.171875 35.875 30.109375 36.203125 28.160156 36.289062 C 26.050781 36.382812 25.417969 36.40625 20.082031 36.40625 C 14.746094 36.40625 14.105469 36.382812 12.003906 36.289062 C 10.046875 36.203125 8.992188 35.875 8.289062 35.601562 C 7.421875 35.28125 6.632812 34.773438 5.992188 34.109375 C 5.328125 33.460938 4.820312 32.679688 4.5 31.8125 C 4.226562 31.109375 3.898438 30.046875 3.8125 28.097656 C 3.71875 25.988281 3.695312 25.355469 3.695312 20.019531 C 3.695312 14.683594 3.71875 14.042969 3.8125 11.941406 C 3.898438 9.988281 4.226562 8.929688 4.5 8.226562 C 4.820312 7.359375 5.328125 6.570312 6 5.929688 C 6.648438 5.265625 7.429688 4.757812 8.296875 4.4375 C 9 4.164062 10.066406 3.835938 12.011719 3.75 C 14.121094 3.65625 14.753906 3.632812 20.089844 3.632812 C 25.433594 3.632812 26.066406 3.65625 28.167969 3.75 C 30.125 3.835938 31.179688 4.164062 31.882812 4.4375 C 32.75 4.757812 33.539062 5.265625 34.179688 5.929688 C 34.84375 6.578125 35.351562 7.359375 35.671875 8.226562 C 35.945312 8.929688 36.273438 9.992188 36.359375 11.941406 C 36.453125 14.050781 36.476562 14.683594 36.476562 20.019531 C 36.476562 25.355469 36.453125 25.980469 36.359375 28.089844 Z M 36.359375 28.089844 "/>
<path style=" stroke:none;fill-rule:nonzero;fill:rgb(100%,70.588235%,0%);fill-opacity:1;" d="M 20.074219 9.726562 C 14.402344 9.726562 9.796875 14.332031 9.796875 20.003906 C 9.796875 25.675781 14.402344 30.28125 20.074219 30.28125 C 25.746094 30.28125 30.351562 25.675781 30.351562 20.003906 C 30.351562 14.332031 25.746094 9.726562 20.074219 9.726562 Z M 20.074219 26.667969 C 16.394531 26.667969 13.410156 23.683594 13.410156 20.003906 C 13.410156 16.324219 16.394531 13.339844 20.074219 13.339844 C 23.753906 13.339844 26.738281 16.324219 26.738281 20.003906 C 26.738281 23.683594 23.753906 26.667969 20.074219 26.667969 Z M 20.074219 26.667969 "/>
<path style=" stroke:none;fill-rule:nonzero;fill:rgb(100%,70.588235%,0%);fill-opacity:1;" d="M 33.15625 9.320312 C 33.15625 10.648438 32.082031 11.722656 30.757812 11.722656 C 29.429688 11.722656 28.355469 10.648438 28.355469 9.320312 C 28.355469 7.996094 29.429688 6.921875 30.757812 6.921875 C 32.082031 6.921875 33.15625 7.996094 33.15625 9.320312 Z M 33.15625 9.320312 "/>
</g>
</svg>
